<svg xmlns="http://www.w3.org/2000/svg" viewBox="0 0 1200 800" width="1200" height="800">
  <defs>
    <linearGradient id="bgGrad" x1="0%" y1="0%" x2="0%" y2="100%">
      <stop offset="0%" style="stop-color:#1a1a2e;stop-opacity:1" />
      <stop offset="100%" style="stop-color:#16213e;stop-opacity:1" />
    </linearGradient>
    <linearGradient id="buyZone" x1="0%" y1="0%" x2="0%" y2="100%">
      <stop offset="0%" style="stop-color:#00c853;stop-opacity:0.15" />
      <stop offset="100%" style="stop-color:#00c853;stop-opacity:0.05" />
    </linearGradient>
    <linearGradient id="slZone" x1="0%" y1="0%" x2="0%" y2="100%">
      <stop offset="0%" style="stop-color:#ff1744;stop-opacity:0.15" />
      <stop offset="100%" style="stop-color:#ff1744;stop-opacity:0.05" />
    </linearGradient>
    <linearGradient id="tp1Zone" x1="0%" y1="0%" x2="0%" y2="100%">
      <stop offset="0%" style="stop-color:#00e5ff;stop-opacity:0.1" />
      <stop offset="100%" style="stop-color:#00e5ff;stop-opacity:0.05" />
    </linearGradient>
    <linearGradient id="tp2Zone" x1="0%" y1="0%" x2="0%" y2="100%">
      <stop offset="0%" style="stop-color:#651fff;stop-opacity:0.1" />
      <stop offset="100%" style="stop-color:#651fff;stop-opacity:0.05" />
    </linearGradient>
    <filter id="glow">
      <feGaussianBlur stdDeviation="2" result="coloredBlur"/>
      <feMerge>
        <feMergeNode in="coloredBlur"/>
        <feMergeNode in="SourceGraphic"/>
      </feMerge>
    </filter>
  </defs>

  <!-- Background -->
  <rect width="1200" height="800" fill="url(#bgGrad)"/>

  <!-- Title Section -->
  <text x="600" y="45" text-anchor="middle" fill="#ffffff" font-family="Arial, sans-serif" font-size="28" font-weight="bold">XAUUSD - Texnik Tahlil</text>
  <text x="600" y="72" text-anchor="middle" fill="#aaaaaa" font-family="Arial, sans-serif" font-size="14">16 Iyun 2026 | 20:00 UTC-4 Sessiya Prognozi | 5M/1H/4H Timeframe</text>

  <!-- Grid Lines -->
  <g stroke="#2a2a4a" stroke-width="0.5" stroke-dasharray="4,4">
    <line x1="100" y1="120" x2="1100" y2="120"/>
    <line x1="100" y1="200" x2="1100" y2="200"/>
    <line x1="100" y1="280" x2="1100" y2="280"/>
    <line x1="100" y1="360" x2="1100" y2="360"/>
    <line x1="100" y1="440" x2="1100" y2="440"/>
    <line x1="100" y1="520" x2="1100" y2="520"/>
    <line x1="100" y1="600" x2="1100" y2="600"/>
  </g>

  <!-- Price Scale (right side) -->
  <text x="1120" y="125" fill="#888" font-family="Arial" font-size="11">4,390</text>
  <text x="1120" y="205" fill="#888" font-family="Arial" font-size="11">4,370</text>
  <text x="1120" y="285" fill="#888" font-family="Arial" font-size="11">4,360</text>
  <text x="1120" y="365" fill="#888" font-family="Arial" font-size="11">4,340</text>
  <text x="1120" y="445" fill="#888" font-family="Arial" font-size="11">4,330</text>
  <text x="1120" y="525" fill="#888" font-family="Arial" font-size="11">4,320</text>
  <text x="1120" y="605" fill="#888" font-family="Arial" font-size="11">4,310</text>

  <!-- TP2 Zone -->
  <rect x="100" y="100" width="1000" height="60" fill="url(#tp2Zone)" rx="2"/>
  <line x1="100" y1="130" x2="1100" y2="130" stroke="#651fff" stroke-width="2" stroke-dasharray="8,4" filter="url(#glow)"/>
  <rect x="105" y="105" width="120" height="22" fill="#651fff" rx="3" opacity="0.9"/>
  <text x="165" y="120" text-anchor="middle" fill="#fff" font-family="Arial" font-size="11" font-weight="bold">TP2: $4,390</text>

  <!-- TP1 Zone -->
  <rect x="100" y="250" width="1000" height="50" fill="url(#tp1Zone)" rx="2"/>
  <line x1="100" y1="280" x2="1100" y2="280" stroke="#00e5ff" stroke-width="2" stroke-dasharray="8,4" filter="url(#glow)"/>
  <rect x="105" y="258" width="120" height="22" fill="#00e5ff" rx="3" opacity="0.9"/>
  <text x="165" y="273" text-anchor="middle" fill="#000" font-family="Arial" font-size="11" font-weight="bold">TP1: $4,360</text>

  <!-- Current Price Line -->
  <line x1="100" y1="360" x2="1100" y2="360" stroke="#ffd600" stroke-width="1.5" stroke-dasharray="3,3"/>
  <rect x="1050" y="350" width="95" height="20" fill="#ffd600" rx="3"/>
  <text x="1097" y="364" text-anchor="middle" fill="#000" font-family="Arial" font-size="11" font-weight="bold">$4,339</text>

  <!-- Entry Zone (BUY) -->
  <rect x="100" y="420" width="1000" height="60" fill="url(#buyZone)" rx="2"/>
  <line x1="100" y1="440" x2="1100" y2="440" stroke="#00c853" stroke-width="2.5" filter="url(#glow)"/>
  <rect x="105" y="422" width="160" height="22" fill="#00c853" rx="3" opacity="0.9"/>
  <text x="185" y="437" text-anchor="middle" fill="#fff" font-family="Arial" font-size="11" font-weight="bold">BUY ENTRY: $4,325-4,330</text>

  <!-- Stop Loss Zone -->
  <rect x="100" y="580" width="1000" height="40" fill="url(#slZone)" rx="2"/>
  <line x1="100" y1="600" x2="1100" y2="600" stroke="#ff1744" stroke-width="2.5" filter="url(#glow)"/>
  <rect x="105" y="582" width="130" height="22" fill="#ff1744" rx="3" opacity="0.9"/>
  <text x="170" y="597" text-anchor="middle" fill="#fff" font-family="Arial" font-size="11" font-weight="bold">SL: $4,310</text>

  <!-- Candlestick Pattern (simulated price action) -->
  <!-- Past candles -->
  <line x1="180" y1="500" x2="180" y2="540" stroke="#ff5252" stroke-width="1"/>
  <rect x="176" y="510" width="8" height="20" fill="#ff5252"/>

  <line x1="200" y1="490" x2="200" y2="530" stroke="#ff5252" stroke-width="1"/>
  <rect x="196" y="500" width="8" height="22" fill="#ff5252"/>

  <line x1="220" y1="510" x2="220" y2="545" stroke="#ff5252" stroke-width="1"/>
  <rect x="216" y="515" width="8" height="25" fill="#ff5252"/>

  <line x1="240" y1="520" x2="240" y2="560" stroke="#ff5252" stroke-width="1"/>
  <rect x="236" y="530" width="8" height="22" fill="#ff5252"/>

  <!-- Bottom / reversal candles -->
  <line x1="260" y1="540" x2="260" y2="580" stroke="#ff5252" stroke-width="1"/>
  <rect x="256" y="555" width="8" height="18" fill="#ff5252"/>

  <line x1="280" y1="550" x2="280" y2="590" stroke="#69f0ae" stroke-width="1"/>
  <rect x="276" y="555" width="8" height="20" fill="#69f0ae"/>

  <line x1="300" y1="530" x2="300" y2="570" stroke="#69f0ae" stroke-width="1"/>
  <rect x="296" y="535" width="8" height="25" fill="#69f0ae"/>

  <!-- Recovery candles -->
  <line x1="320" y1="500" x2="320" y2="545" stroke="#69f0ae" stroke-width="1"/>
  <rect x="316" y="505" width="8" height="30" fill="#69f0ae"/>

  <line x1="340" y1="470" x2="340" y2="510" stroke="#69f0ae" stroke-width="1"/>
  <rect x="336" y="475" width="8" height="28" fill="#69f0ae"/>

  <line x1="360" y1="450" x2="360" y2="490" stroke="#69f0ae" stroke-width="1"/>
  <rect x="356" y="455" width="8" height="25" fill="#69f0ae"/>

  <line x1="380" y1="430" x2="380" y2="470" stroke="#69f0ae" stroke-width="1"/>
  <rect x="376" y="435" width="8" height="28" fill="#69f0ae"/>

  <line x1="400" y1="415" x2="400" y2="450" stroke="#69f0ae" stroke-width="1"/>
  <rect x="396" y="420" width="8" height="22" fill="#69f0ae"/>

  <!-- Consolidation candles near current price -->
  <line x1="420" y1="380" x2="420" y2="415" stroke="#69f0ae" stroke-width="1"/>
  <rect x="416" y="385" width="8" height="20" fill="#69f0ae"/>

  <line x1="440" y1="370" x2="440" y2="400" stroke="#ff5252" stroke-width="1"/>
  <rect x="436" y="375" width="8" height="18" fill="#ff5252"/>

  <line x1="460" y1="365" x2="460" y2="395" stroke="#69f0ae" stroke-width="1"/>
  <rect x="456" y="370" width="8" height="18" fill="#69f0ae"/>

  <line x1="480" y1="350" x2="480" y2="385" stroke="#69f0ae" stroke-width="1"/>
  <rect x="476" y="355" width="8" height="22" fill="#69f0ae"/>

  <line x1="500" y1="345" x2="500" y2="380" stroke="#ff5252" stroke-width="1"/>
  <rect x="496" y="350" width="8" height="20" fill="#ff5252"/>

  <line x1="520" y1="340" x2="520" y2="375" stroke="#ff5252" stroke-width="1"/>
  <rect x="516" y="348" width="8" height="18" fill="#ff5252"/>

  <line x1="540" y1="345" x2="540" y2="380" stroke="#69f0ae" stroke-width="1"/>
  <rect x="536" y="350" width="8" height="20" fill="#69f0ae"/>

  <line x1="560" y1="348" x2="560" y2="378" stroke="#69f0ae" stroke-width="1"/>
  <rect x="556" y="352" width="8" height="18" fill="#69f0ae"/>

  <line x1="580" y1="350" x2="580" y2="380" stroke="#ff5252" stroke-width="1"/>
  <rect x="576" y="355" width="8" height="18" fill="#ff5252"/>

  <line x1="600" y1="352" x2="600" y2="382" stroke="#ff5252" stroke-width="1"/>
  <rect x="596" y="358" width="8" height="16" fill="#ff5252"/>

  <line x1="620" y1="355" x2="620" y2="380" stroke="#69f0ae" stroke-width="1"/>
  <rect x="616" y="358" width="8" height="15" fill="#69f0ae"/>

  <!-- Current candle -->
  <line x1="640" y1="348" x2="640" y2="375" stroke="#ffd600" stroke-width="1.5"/>
  <rect x="635" y="352" width="10" height="16" fill="#ffd600" stroke="#ffd600" stroke-width="1"/>

  <!-- Future projected move (dashed arrow) -->
  <path d="M 660 360 Q 700 380 720 440 Q 740 450 760 440 Q 800 400 850 350 Q 900 300 950 280 Q 1000 250 1050 130" 
        stroke="#00e5ff" stroke-width="2" stroke-dasharray="6,4" fill="none" opacity="0.7"/>

  <!-- Arrow at projected path -->
  <polygon points="1050,125 1042,140 1058,140" fill="#00e5ff" opacity="0.8"/>

  <!-- Pullback annotation -->
  <circle cx="720" cy="440" r="12" fill="none" stroke="#00c853" stroke-width="2" stroke-dasharray="3,2"/>
  <text x="720" y="465" text-anchor="middle" fill="#00c853" font-family="Arial" font-size="10" font-weight="bold">KIRISH</text>

  <!-- Support line -->
  <line x1="100" y1="520" x2="700" y2="520" stroke="#4fc3f7" stroke-width="1" stroke-dasharray="4,3" opacity="0.6"/>
  <text x="105" y="515" fill="#4fc3f7" font-family="Arial" font-size="10">Support: $4,318-4,320</text>

  <!-- Resistance line -->
  <line x1="400" y1="310" x2="800" y2="310" stroke="#ff8a80" stroke-width="1" stroke-dasharray="4,3" opacity="0.6"/>
  <text x="405" y="305" fill="#ff8a80" font-family="Arial" font-size="10">Resistance: $4,350-4,357</text>

  <!-- Time labels -->
  <text x="200" y="640" fill="#666" font-family="Arial" font-size="10">10:00</text>
  <text x="350" y="640" fill="#666" font-family="Arial" font-size="10">12:00</text>
  <text x="500" y="640" fill="#666" font-family="Arial" font-size="10">14:00</text>
  <text x="640" y="640" fill="#ffd600" font-family="Arial" font-size="10" font-weight="bold">15:00 (Hozir)</text>
  <text x="800" y="640" fill="#00e5ff" font-family="Arial" font-size="10">18:00</text>
  <text x="950" y="640" fill="#00e5ff" font-family="Arial" font-size="10" font-weight="bold">20:00 (Target)</text>

  <!-- Vertical time marker for 20:00 -->
  <line x1="970" y1="100" x2="970" y2="625" stroke="#00e5ff" stroke-width="1" stroke-dasharray="3,5" opacity="0.4"/>

  <!-- Info Panel (bottom section) -->
  <rect x="100" y="665" width="1000" height="120" fill="#0d1b2a" rx="8" stroke="#2a3a5a" stroke-width="1"/>

  <!-- Trade Setup Details -->
  <text x="130" y="692" fill="#ffffff" font-family="Arial" font-size="16" font-weight="bold">SAVDO REJASI - 20:00 UTC-4</text>

  <!-- Buy Setup -->
  <rect x="130" y="705" width="12" height="12" fill="#00c853" rx="2"/>
  <text x="150" y="716" fill="#ccc" font-family="Arial" font-size="13">Yo'nalish: <tspan fill="#00c853" font-weight="bold">BUY (Xarid)</tspan></text>

  <rect x="130" y="728" width="12" height="12" fill="#00c853" rx="2"/>
  <text x="150" y="739" fill="#ccc" font-family="Arial" font-size="13">Kirish: <tspan fill="#00c853" font-weight="bold">$4,325 - $4,330</tspan> (pullback kutiladi)</text>

  <rect x="130" y="751" width="12" height="12" fill="#ff1744" rx="2"/>
  <text x="150" y="762" fill="#ccc" font-family="Arial" font-size="13">Stop Loss: <tspan fill="#ff1744" font-weight="bold">$4,310</tspan> (-15 to -20 pips)</text>

  <!-- TP Section -->
  <rect x="550" y="705" width="12" height="12" fill="#00e5ff" rx="2"/>
  <text x="570" y="716" fill="#ccc" font-family="Arial" font-size="13">TP1: <tspan fill="#00e5ff" font-weight="bold">$4,360</tspan> (+30 pips) | R:R = 1:2</text>

  <rect x="550" y="728" width="12" height="12" fill="#651fff" rx="2"/>
  <text x="570" y="739" fill="#ccc" font-family="Arial" font-size="13">TP2: <tspan fill="#651fff" font-weight="bold">$4,390</tspan> (+60 pips) | R:R = 1:3.5</text>

  <rect x="550" y="751" width="12" height="12" fill="#ffd600" rx="2"/>
  <text x="570" y="762" fill="#ccc" font-family="Arial" font-size="13">Sabab: <tspan fill="#ffd600">V-recovery + Iran deal = bullish momentum</tspan></text>

  <!-- Risk Warning -->
  <text x="600" y="782" text-anchor="middle" fill="#ff8a80" font-family="Arial" font-size="10" font-style="italic">* Bu moliyaviy maslahat EMAS. Faqat texnik tahlil. O'z risking bilan savdo qiling. *</text>

  <!-- Watermark -->
  <text x="1090" y="790" text-anchor="end" fill="#333" font-family="Arial" font-size="9">Kiro AI Analysis | agzamprop/Forex</text>
</svg>